<?xml version="1.0" standalone="no"?>
<!DOCTYPE svg PUBLIC "-//W3C//DTD SVG 20010904//EN"
 "http://www.w3.org/TR/2001/REC-SVG-20010904/DTD/svg10.dtd">
<svg version="1.0" xmlns="http://www.w3.org/2000/svg"
 width="144.000000pt" height="144.000000pt" viewBox="0 0 144.000000 144.000000"
 preserveAspectRatio="xMidYMid meet">
<metadata>
Created by potrace 1.11, written by Peter Selinger 2001-2013
</metadata>
<g transform="translate(0.000000,144.000000) scale(0.100000,-0.100000)"
fill="#000000" stroke="none">
<path d="M695 1070 c-3 -6 1 -7 9 -4 18 7 21 14 7 14 -6 0 -13 -4 -16 -10z"/>
<path d="M822 1071 c-11 -7 -11 -9 2 -14 9 -4 24 -4 34 -1 16 5 16 5 -1 -9
-16 -13 -16 -15 -2 -21 11 -4 14 -2 9 6 -5 7 -3 8 6 3 8 -5 11 -4 7 2 -3 5 0
10 8 11 8 1 22 3 30 4 8 1 11 6 8 12 -3 6 -4 9 0 6 8 -7 8 -25 0 -25 -16 0
-112 -68 -118 -84 -5 -13 -7 -14 -16 -1 -8 11 -9 10 -4 -8 4 -15 1 -24 -9 -28
-9 -3 -13 -10 -10 -15 3 -5 0 -9 -7 -9 -7 0 -9 -3 -6 -7 4 -3 -1 -12 -11 -20
-9 -8 -12 -12 -5 -9 7 4 9 -1 6 -14 -3 -11 -12 -20 -19 -20 -8 0 -14 -5 -14
-11 0 -5 5 -7 11 -3 9 5 10 -1 4 -22 -9 -34 -9 -107 -1 -147 4 -19 3 -26 -4
-22 -5 3 -10 1 -10 -4 0 -6 7 -11 17 -11 9 0 14 -3 10 -6 -3 -3 3 -22 14 -41
11 -19 17 -38 14 -43 -3 -5 0 -12 6 -16 8 -5 9 -3 4 6 -6 9 -4 11 4 6 7 -5 10
-10 8 -12 -3 -3 9 -18 25 -34 27 -28 30 -50 7 -50 -6 0 -7 5 -4 10 8 13 -12
40 -29 40 -6 0 -3 -5 7 -11 9 -5 17 -15 17 -21 0 -7 -5 -6 -15 2 -10 9 -15 9
-15 1 0 -6 5 -11 11 -11 5 0 7 -5 3 -12 -4 -6 -3 -8 3 -5 6 4 16 0 23 -8 11
-13 9 -15 -10 -12 -13 2 -28 11 -35 21 -11 15 -13 15 -19 1 -3 -9 -2 -13 4
-10 6 3 10 2 10 -3 0 -14 -28 -23 -34 -11 -2 5 -3 4 -1 -3 1 -7 9 -11 16 -9
34 9 55 7 72 -7 16 -15 17 -14 11 4 -7 18 -7 18 13 1 19 -16 21 -16 27 -2 3 9
10 14 15 10 5 -3 12 -1 16 5 8 13 25 3 25 -13 0 -8 -3 -8 -9 1 -7 11 -9 11
-13 0 -5 -11 19 -14 126 -13 120 0 136 2 188 27 79 37 142 98 181 177 29 59
32 74 32 151 -1 70 -6 95 -27 142 -36 79 -98 142 -176 180 -65 32 -70 33 -198
33 -73 0 -130 -3 -128 -7 6 -10 -26 -5 -43 5 -8 5 -13 4 -13 -2 0 -6 -5 -11
-11 -11 -5 0 -7 5 -4 10 7 12 4 12 -13 1z m68 -661 c6 0 10 -5 10 -12 0 -6 -3
-8 -7 -5 -3 4 -12 2 -20 -5 -11 -9 -18 -8 -30 5 -13 12 -14 19 -5 30 7 8 11
16 9 18 -1 2 6 -4 16 -13 10 -10 22 -18 27 -18z"/>
<path d="M844 408 c-4 -6 -3 -8 4 -4 5 3 12 1 14 -6 3 -8 6 -9 11 -1 4 6 0 13
-8 17 -8 3 -17 0 -21 -6z"/>
<path d="M718 1057 c-10 -6 -8 -7 4 -4 9 3 18 1 21 -6 2 -7 6 -5 9 4 7 18 -14
21 -34 6z"/>
<path d="M475 1041 c-3 -5 -2 -12 3 -15 5 -3 9 1 9 9 0 17 -3 19 -12 6z"/>
<path d="M576 1042 c-3 -5 1 -9 9 -9 8 0 12 4 9 9 -3 4 -7 8 -9 8 -2 0 -6 -4
-9 -8z"/>
<path d="M673 1036 c0 -8 6 -12 14 -9 7 3 10 9 7 14 -8 14 -21 11 -21 -5z"/>
<path d="M763 1040 c2 -8 14 -20 26 -26 15 -8 19 -14 11 -19 -6 -4 -22 3 -35
15 -22 20 -25 21 -31 6 -8 -22 3 -49 17 -40 7 4 9 0 5 -14 -4 -11 -2 -23 3
-26 6 -4 9 5 7 21 -1 16 -8 27 -14 26 -7 -2 -12 7 -12 19 l0 21 24 -22 c23
-22 25 -22 50 -6 24 16 39 34 16 20 -11 -7 -50 12 -63 29 -6 7 -7 6 -4 -4z"/>
<path d="M795 1040 c28 -12 37 -12 30 0 -3 6 -16 10 -28 9 -21 0 -21 -1 -2 -9z"/>
<path d="M715 1029 c-4 -6 -5 -12 -2 -15 2 -3 7 2 10 11 7 17 1 20 -8 4z"/>
<path d="M599 1013 c-13 -16 -12 -17 4 -4 9 7 17 15 17 17 0 8 -8 3 -21 -13z"/>
<path d="M570 1001 c0 -6 4 -13 10 -16 6 -3 7 1 4 9 -7 18 -14 21 -14 7z"/>
<path d="M619 993 c-13 -17 -13 -17 6 -3 11 8 22 16 24 17 2 2 0 3 -6 3 -6 0
-17 -8 -24 -17z"/>
<path d="M670 989 c-12 -8 -10 -9 9 -4 17 5 22 4 16 -5 -5 -9 -4 -11 4 -6 6 4
9 12 6 17 -8 12 -16 11 -35 -2z"/>
<path d="M630 966 c0 -2 7 -7 16 -10 8 -3 12 -2 9 4 -6 10 -25 14 -25 6z"/>
<path d="M716 955 c4 -8 8 -15 10 -15 2 0 4 7 4 15 0 8 -4 15 -10 15 -5 0 -7
-7 -4 -15z"/>
<path d="M673 944 c3 -3 2 -17 -3 -30 -7 -17 -6 -22 3 -18 15 5 19 54 4 54 -6
0 -8 -3 -4 -6z"/>
<path d="M711 910 c14 -31 19 -36 19 -24 0 6 -7 19 -16 30 -14 18 -14 18 -3
-6z"/>
<path d="M730 920 c0 -5 5 -10 10 -10 6 0 10 5 10 10 0 6 -4 10 -10 10 -5 0
-10 -4 -10 -10z"/>
<path d="M593 887 c-1 -11 -1 -18 0 -16 2 2 8 11 15 20 9 12 9 16 -1 16 -7 0
-14 -9 -14 -20z"/>
<path d="M619 873 c-13 -16 -12 -17 3 -5 9 8 23 10 29 6 8 -4 9 -3 5 4 -10 17
-21 15 -37 -5z"/>
<path d="M677 869 c7 -7 15 -10 18 -7 3 3 -2 9 -12 12 -14 6 -15 5 -6 -5z"/>
<path d="M601 836 c-9 -11 -9 -16 1 -22 7 -4 10 -4 6 1 -4 4 -3 14 3 22 6 7 9
13 6 13 -2 0 -10 -6 -16 -14z"/>
<path d="M633 843 c4 -3 1 -13 -6 -22 -11 -14 -10 -14 5 -2 16 12 16 31 1 31
-4 0 -3 -3 0 -7z"/>
<path d="M690 839 c0 -5 5 -7 10 -4 6 3 10 8 10 11 0 2 -4 4 -10 4 -5 0 -10
-5 -10 -11z"/>
<path d="M550 826 c0 -2 7 -7 16 -10 8 -3 12 -2 9 4 -6 10 -25 14 -25 6z"/>
<path d="M690 811 c0 -10 19 -25 25 -20 1 2 -3 10 -11 17 -8 7 -14 8 -14 3z"/>
<path d="M670 780 c0 -5 5 -10 10 -10 6 0 10 5 10 10 0 6 -4 10 -10 10 -5 0
-10 -4 -10 -10z"/>
<path d="M495 760 c3 -5 8 -10 11 -10 2 0 4 5 4 10 0 6 -5 10 -11 10 -5 0 -7
-4 -4 -10z"/>
<path d="M627 739 c7 -7 15 -10 18 -7 3 3 -2 9 -12 12 -14 6 -15 5 -6 -5z"/>
<path d="M600 726 c0 -2 8 -10 18 -17 15 -13 16 -12 3 4 -13 16 -21 21 -21 13z"/>
<path d="M676 715 c-11 -8 -15 -15 -9 -15 7 0 15 5 18 10 4 6 11 8 16 5 5 -4
9 -1 9 4 0 15 -11 13 -34 -4z"/>
<path d="M493 705 c0 -8 4 -12 9 -9 5 3 6 10 3 15 -9 13 -12 11 -12 -6z"/>
<path d="M530 699 c0 -5 5 -7 10 -4 6 3 10 8 10 11 0 2 -4 4 -10 4 -5 0 -10
-5 -10 -11z"/>
<path d="M575 680 c-5 -8 62 -7 69 1 3 2 -11 5 -30 5 -20 0 -37 -3 -39 -6z"/>
<path d="M673 670 c-1 -11 2 -20 7 -20 4 0 7 7 6 15 -3 23 -12 26 -13 5z"/>
<path d="M494 656 c1 -8 5 -18 8 -22 4 -3 5 1 4 10 -1 8 -5 18 -8 22 -4 3 -5
-1 -4 -10z"/>
<path d="M666 623 c-6 -14 -5 -15 5 -6 7 7 10 15 7 18 -3 3 -9 -2 -12 -12z"/>
<path d="M620 626 c0 -2 8 -10 18 -17 15 -13 16 -12 3 4 -13 16 -21 21 -21 13z"/>
<path d="M591 607 c2 -1 13 -9 24 -17 19 -14 19 -14 6 3 -7 9 -18 17 -24 17
-6 0 -8 -1 -6 -3z"/>
<path d="M685 600 c3 -5 8 -10 11 -10 2 0 4 5 4 10 0 6 -5 10 -11 10 -5 0 -7
-4 -4 -10z"/>
<path d="M668 570 c5 -14 8 -33 6 -43 -1 -9 2 -15 6 -12 11 7 2 56 -11 70 -7
7 -7 2 -1 -15z"/>
<path d="M697 559 c7 -7 15 -10 18 -7 3 3 -2 9 -12 12 -14 6 -15 5 -6 -5z"/>
<path d="M510 540 c0 -5 5 -10 11 -10 5 0 7 5 4 10 -3 6 -8 10 -11 10 -2 0 -4
-4 -4 -10z"/>
<path d="M724 539 c-4 -7 -3 -9 4 -5 7 4 10 -1 9 -14 -1 -21 -12 -27 -20 -10
-3 6 -4 5 -3 -2 4 -22 29 -15 32 9 4 25 -11 39 -22 22z"/>
<path d="M610 496 c0 -2 8 -10 18 -17 15 -13 16 -12 3 4 -13 16 -21 21 -21 13z"/>
<path d="M669 491 c8 -5 10 -14 6 -22 -6 -11 -5 -11 5 -2 14 12 6 33 -13 33
-8 0 -7 -3 2 -9z"/>
<path d="M593 473 c0 -11 7 -20 14 -20 10 0 10 4 1 16 -7 9 -13 18 -15 20 -1
2 -1 -5 0 -16z"/>
<path d="M750 480 c0 -5 5 -10 10 -10 6 0 10 5 10 10 0 6 -4 10 -10 10 -5 0
-10 -4 -10 -10z"/>
<path d="M642 461 c-10 -6 -10 -10 2 -20 11 -9 16 -9 22 0 5 8 3 9 -6 4 -10
-6 -12 -4 -7 8 7 19 7 20 -11 8z"/>
<path d="M693 457 c-3 -6 -1 -7 5 -3 5 3 13 0 15 -6 4 -10 6 -10 6 0 2 20 17
14 18 -8 1 -13 -2 -18 -9 -14 -7 4 -8 2 -4 -5 11 -17 26 -3 22 22 -3 23 -41
33 -53 14z"/>
<path d="M627 419 c7 -7 15 -10 18 -7 3 3 -2 9 -12 12 -14 6 -15 5 -6 -5z"/>
<path d="M699 423 c-1 -5 -1 -12 0 -17 1 -5 -4 -6 -12 -3 -7 3 -14 -1 -14 -8
0 -10 6 -11 25 -2 13 6 19 13 13 15 -6 2 -9 8 -5 13 3 5 3 9 0 9 -3 0 -7 -3
-7 -7z"/>
<path d="M486 378 c3 -5 10 -6 15 -3 13 9 11 12 -6 12 -8 0 -12 -4 -9 -9z"/>
<path d="M710 381 c0 -6 4 -13 10 -16 6 -3 7 1 4 9 -7 18 -14 21 -14 7z"/>
</g>
</svg>
